<svg xmlns="http://www.w3.org/2000/svg" viewBox="0 0 965.03 1040.26"><defs><style>.cls-1,.cls-3{fill:#f4f24f;}.cls-1{stroke:#000;stroke-width:9.66px;}.cls-1,.cls-6{stroke-miterlimit:10;}.cls-2{fill:#231f20;}.cls-4{fill:#7db0d3;}.cls-5{fill:#95cefc;}.cls-13,.cls-6{fill:none;}.cls-6{stroke:#95cefc;stroke-width:2.56px;}.cls-7{fill:#489ae8;}.cls-8{fill:#ff002b;}.cls-12,.cls-14,.cls-9{fill:#0a5ca0;}.cls-9{opacity:0.25;}.cls-10,.cls-11{fill:#890326;}.cls-10{opacity:0.12;}.cls-11{opacity:0.17;}.cls-12{opacity:0.39;}.cls-14{opacity:0.31;}.cls-15,.cls-19{fill:#fff;}.cls-15{opacity:0.68;}.cls-16{fill:#fff200;}.cls-17{fill:#aed5f1;}.cls-18{fill:#4c99e3;}</style></defs><title>Asset 2</title><g id="Layer_2" data-name="Layer 2"><g id="Layer_1-2" data-name="Layer 1"><path class="cls-1" d="M652,171.37l-1.46,233.92c53.2,44,86.85,108.94,86.85,181.35,0,132.58-112.75,240.05-251.84,240.05S233.66,719.22,233.66,586.64c0-70.49,31.88-133.89,82.65-177.8l1.47-236.22C146.08,236.57,24.52,395.18,24.52,580.73,24.52,822.79,231.4,1019,486.6,1019S948.68,822.79,948.68,580.73C948.68,393.94,825.47,234.47,652,171.37Z"/><path class="cls-2" d="M870.36,324.86c-55.18-74.75-131.6-131.44-221-163.94L627.58,153l-1.65,264.85,6,5c51.43,42.54,80.92,104.05,80.92,168.76,0,123.34-105.64,223.7-235.49,223.7s-235.5-100.36-235.5-223.7c0-62.82,28.06-123.12,77-165.45l5.6-4.84L326.1,154l-22.2,8.26c-88.48,33-164,89.71-218.5,164.12C29.53,402.65,0,492.32,0,585.63,0,707.23,49.87,821.51,140.44,907.4c90.32,85.68,210.36,132.86,338,132.86s247.66-47.18,338-132.86C907,821.51,956.85,707.23,956.85,585.63,956.85,491.68,927,401.5,870.36,324.86ZM478.43,1023.92c-255.2,0-462.09-196.23-462.09-438.29,0-185.54,121.57-344.15,293.27-408.1l-1.48,236.21c-50.76,43.92-82.65,107.31-82.65,177.81,0,132.57,112.76,240,251.85,240s251.84-107.47,251.84-240c0-72.42-33.65-137.35-86.85-181.36l1.46-233.91C817.3,239.37,940.51,398.84,940.51,585.63,940.51,827.69,733.63,1023.92,478.43,1023.92Z"/><path class="cls-3" d="M878.54,320c-55.19-74.75-131.61-131.44-221-163.95l-21.79-7.92L634.1,412.94l6,4.94C691.5,460.43,721,521.94,721,586.64c0,123.35-105.65,223.7-235.5,223.7S250,710,250,586.64c0-62.81,28.07-123.11,77-165.44l5.6-4.85L334.27,149l-22.2,8.27C223.6,190.26,148,247,93.57,321.42c-55.87,76.33-85.4,166-85.4,259.31,0,121.6,49.88,235.87,140.44,321.77,90.33,85.67,210.36,132.86,338,132.86s247.66-47.19,338-132.86C915.15,816.6,965,702.33,965,580.73,965,486.77,935.12,396.6,878.54,320ZM486.6,1019C231.4,1019,24.52,822.79,24.52,580.73c0-185.55,121.56-344.16,293.26-408.11l-1.47,236.22c-50.77,43.91-82.65,107.31-82.65,177.8,0,132.58,112.75,240.05,251.84,240.05S737.34,719.22,737.34,586.64c0-72.41-33.65-137.34-86.85-181.35L652,171.37c173.52,63.1,296.73,222.57,296.73,409.36C948.68,822.79,741.8,1019,486.6,1019Z"/><rect class="cls-4" x="454.49" y="493.46" width="41.71" height="30.87"/><path class="cls-5" d="M577.53,533.83a29.41,29.41,0,0,0-11.09,56.66l36.63-41.8A29.38,29.38,0,0,0,577.53,533.83Z"/><polygon class="cls-5" points="593.86 561.97 573.29 584.81 614.55 608.34 616.3 575.19 593.86 561.97"/><path class="cls-6" d="M632.5,601.84c-9.34,8.72-18.82,4.86-18.82,4.86"/><path class="cls-5" d="M616.92,574.81l15.33,28.55L669.4,551.5l-25.8-19.32Z"/><path class="cls-7" d="M633.82,494.47A44.18,44.18,0,0,0,630.63,511c0,24.16,19.29,43.75,43.07,43.75A42.88,42.88,0,0,0,710,534.48Z"/><circle class="cls-5" cx="663.16" cy="527.96" r="3.36"/><path class="cls-8" d="M648.88,499s-11.18-39.75,27.83-56.64c2.93-1.28,8.07-1.25,11-.24,10,3.43-.13,16.7-4,21.25-7.47,8.86-11.49,20.6-9.27,32.15"/><path class="cls-8" d="M697.73,525.7s40.47-8.2,37.69-50.62c-.21-3.19-2.58-7.73-4.81-9.9-8-7.7-14.93,8.4-17.51,14.18-4.59,10.28-13,18.79-24,22"/><path class="cls-3" d="M702.62,530.5c0-21.51-16.59-39-37-39a35.77,35.77,0,0,0-22.33,7.87l59.38,31.13Z"/><path class="cls-5" d="M366.69,533.83a29.41,29.41,0,0,1,11.08,56.66l-36.62-41.8A29.37,29.37,0,0,1,366.69,533.83Z"/><polygon class="cls-5" points="350.36 561.97 370.92 584.81 329.66 608.34 327.92 575.19 350.36 561.97"/><path class="cls-6" d="M311.71,601.84c9.35,8.72,18.83,4.86,18.83,4.86"/><path class="cls-5" d="M327.3,574.81,312,603.36,274.82,551.5l25.8-19.32Z"/><path class="cls-7" d="M310.4,494.47A44.18,44.18,0,0,1,313.58,511c0,24.16-19.28,43.75-43.06,43.75a42.87,42.87,0,0,1-36.33-20.26Z"/><circle class="cls-5" cx="281.06" cy="527.96" r="3.36"/><path class="cls-8" d="M295.33,499s11.18-39.75-27.82-56.64c-2.94-1.28-8.07-1.25-11-.24-10,3.43.14,16.7,4,21.25,7.47,8.86,11.5,20.6,9.27,32.15"/><path class="cls-8" d="M246.49,525.7s-40.47-8.2-37.7-50.62c.21-3.19,2.58-7.73,4.82-9.9,7.95-7.7,14.92,8.4,17.51,14.18,4.58,10.28,13,18.79,24,22"/><path class="cls-3" d="M241.6,530.5c0-21.51,16.59-39,37-39A35.76,35.76,0,0,1,301,499.41L241.6,530.54Z"/><path class="cls-9" d="M654.64,550.15c.92.46,1.89.91,2.93,1.33a45.51,45.51,0,0,0,9.84,2.8L632.5,604.69q-2.36-4.74-4.72-9.47a91.54,91.54,0,0,0,26.86-45.07Z"/><path class="cls-9" d="M578.58,578.94a94,94,0,0,0,36.23,24.93l-.26,4.47-41.26-23.53Z"/><rect class="cls-5" x="341.93" y="304.93" width="264.71" height="179.97"/><rect class="cls-8" x="392.96" y="8.41" width="163.24" height="479.15"/><rect class="cls-8" x="392.96" y="528.37" width="163.24" height="163.24"/><path class="cls-8" d="M533.27,726.32l-114.58.41-18.83-23.32h150.6Z"/><rect class="cls-8" x="386.77" y="729.6" width="171.88" height="18.82" rx="7.41"/><rect class="cls-8" x="417.05" y="752.25" width="113.36" height="18.82" rx="7.41"/><rect class="cls-8" x="439.97" y="775.74" width="66.7" height="18.82" rx="7.41"/><path class="cls-10" d="M466.75,8.41s95,105.52,89.45,216.93V8.41Z"/><path class="cls-10" d="M466.75,528.37s95,52.76,89.45,108.47V528.37Z"/><path class="cls-11" d="M526.67,703.41a17.51,17.51,0,0,1,.19,7.57c-2.17,10.71-14.2,15-15.27,15.42l21.68-.08,17.19-22.91Z"/><path class="cls-11" d="M550.46,729.6a14.93,14.93,0,0,1,3.24,7.47,15.56,15.56,0,0,1-3.24,11.27,10,10,0,0,0,8.18-9.33S559.27,731.84,550.46,729.6Z"/><path class="cls-11" d="M498.48,775.78a14.9,14.9,0,0,1,3.23,7.47,15.52,15.52,0,0,1-3.23,11.27,10,10,0,0,0,8.18-9.33S507.28,778,498.48,775.78Z"/><path class="cls-11" d="M522.21,752.29a15,15,0,0,1,3.24,7.47A15.54,15.54,0,0,1,522.21,771a10.27,10.27,0,0,0,6.28-3.92,10.48,10.48,0,0,0,1.91-5.4S531,754.54,522.21,752.29Z"/><path class="cls-3" d="M499.56,469.2h-52c-7.6,0-13.76-5.14-13.76-11.48h0c0-6.34,6.16-11.49,13.76-11.49h52c7.6,0,13.76,5.15,13.76,11.49h0C513.32,464.06,507.16,469.2,499.56,469.2Z"/><path d="M447.52,446.23l0,23a3.47,3.47,0,0,1-.88,0,6.55,6.55,0,0,1-.77-.05V446.31a7.83,7.83,0,0,1,.81-.05C447,446.25,447.24,446.23,447.52,446.23Z"/><polygon points="465.7 469.2 464.08 469.2 464.03 446.23 465.7 446.23 465.7 469.2"/><polygon points="484.24 469.21 482.57 469.21 482.49 446.23 484.28 446.22 484.24 469.21"/><path d="M503,446.33V469.1a2,2,0,0,0-.48,0c-.11,0-.23,0-.35,0-.28,0-.55,0-.83,0v-23c.24,0,.51,0,.79,0s.43,0,.63.07Z"/><path class="cls-7" d="M373.53,536.8v98.63a22.64,22.64,0,0,0,22.64,22.63H555a22.63,22.63,0,0,0,22.63-22.63V536.8A22.63,22.63,0,0,0,555,514.17H396.17A22.64,22.64,0,0,0,373.53,536.8Zm154.28,99h-106a22.64,22.64,0,0,1-22.63-22.64V559.76a22.64,22.64,0,0,1,22.63-22.64h106a22.64,22.64,0,0,1,22.63,22.64v53.39A22.64,22.64,0,0,1,527.81,635.79Z"/><path class="cls-12" d="M537.68,514.17s58.22,34.08,8.55,143.89c0,0,28.38,5.23,31.29-20.44l.11-100.82s.66-20.11-20-22.47Z"/><rect class="cls-13" x="407.91" y="18.94" width="133.99" height="263.79"/><rect class="cls-13" x="407.91" y="502.56" width="133.99" height="180.05"/><path class="cls-13" d="M345.1,350.32V433A45.46,45.46,0,0,0,388,478.41V304.93A45.46,45.46,0,0,0,345.1,350.32Z"/><path class="cls-13" d="M561.33,478.48A45.46,45.46,0,0,0,606.8,433v-82.7a45.47,45.47,0,0,0-45.47-45.47h-.59V478.48Z"/><rect class="cls-13" x="407.91" y="304.85" width="133.99" height="173.63"/><polygon class="cls-3" points="388.02 0 388.02 282.73 407.91 282.73 407.91 18.94 541.9 18.94 541.9 282.73 560.74 282.73 560.74 0 388.02 0"/><path class="cls-3" d="M541.9,502.56V682.61h-134V304.85H390.57c-.86,0-1.71,0-2.55.08V703.55H560.74V304.85H541.9Z"/><rect class="cls-7" x="407.91" y="478.48" width="133.99" height="24.08"/><path class="cls-7" d="M595.81,282.73H560.74v22.12h.59a45.47,45.47,0,0,1,45.47,45.47V433a45.46,45.46,0,0,1-45.47,45.46h-.59v24.08h35.07A37.16,37.16,0,0,0,633,465.4V319.89A37.16,37.16,0,0,0,595.81,282.73Z"/><path class="cls-7" d="M345.1,433v-82.7A45.46,45.46,0,0,1,388,304.93v-22.2H353a37.16,37.16,0,0,0-37.16,37.16V465.4A37.16,37.16,0,0,0,353,502.56H388V478.41A45.46,45.46,0,0,1,345.1,433Z"/><rect class="cls-7" x="407.91" y="282.73" width="133.99" height="22.12"/><rect class="cls-7" x="541.9" y="282.73" width="18.84" height="22.12"/><path class="cls-7" d="M390.57,304.85h17.34V282.73H388v22.2C388.86,304.88,389.71,304.85,390.57,304.85Z"/><path class="cls-14" d="M579.12,282.73c10.78,5.88,27.35,17.09,38,36.8,3.85,7.17,7.37,16.31,9.39,63.38,2.71,63.13-2.24,78.72-6.26,88.41a121.62,121.62,0,0,1-18.65,30.8,33.1,33.1,0,0,0,14-4.86c7.26-4.68,15.12-13.86,17.47-31.86l0-146.87s.79-29.31-32.76-35.53Z"/><polygon class="cls-15" points="388.02 89.52 407.91 113.95 407.91 155.03 388.02 116.17 388.02 89.52"/><polygon class="cls-15" points="388.02 150.84 407.91 189.45 407.91 236.09 388.02 168.35 388.02 150.84"/><polygon class="cls-15" points="541.9 539.08 560.74 585.71 560.74 617.91 541.9 565.73 541.9 539.08"/><circle class="cls-16" cx="343.7" cy="305.24" r="5.72"/><circle class="cls-16" cx="343.7" cy="478.48" r="5.72"/><circle class="cls-16" cx="603.07" cy="478.41" r="5.72"/><circle class="cls-16" cx="603.07" cy="304.93" r="5.72"/><polygon class="cls-17" points="459.79 282.73 474.38 243.32 489.29 282.73 459.79 282.73"/><circle class="cls-3" cx="473.54" cy="234.01" r="19.04"/><circle class="cls-18" cx="412.9" cy="390.43" r="58.15"/><circle class="cls-19" cx="413.35" cy="389.44" r="43.57"/><circle cx="416.14" cy="389.96" r="21.41"/><circle class="cls-19" cx="425.52" cy="379.77" r="3.37"/><circle class="cls-19" cx="421.88" cy="389.4" r="3.65"/><circle class="cls-19" cx="430.35" cy="389.21" r="2.34"/><circle class="cls-18" cx="536.19" cy="388.15" r="58.15"/><circle class="cls-19" cx="536.65" cy="387.16" r="43.57"/><circle cx="539.43" cy="387.68" r="21.41"/><circle class="cls-19" cx="548.82" cy="377.49" r="3.37"/><circle class="cls-19" cx="545.17" cy="387.12" r="3.65"/><circle class="cls-19" cx="553.65" cy="386.93" r="2.34"/><path d="M156.88,667.64l-52.39,16.55L99.3,667.76l52.39-16.55Z"/><path d="M110,694.27a7.77,7.77,0,0,1,4.64-4.75,8,8,0,0,1,6.74.27,11.74,11.74,0,0,1,5.26,13.35,7.91,7.91,0,0,1-4.74,4.79,7.74,7.74,0,0,1-6.63-.3,10.38,10.38,0,0,1-4.86-5.76A10.54,10.54,0,0,1,110,694.27Z"/><path d="M156,702.19a23.9,23.9,0,0,1,13.18,3.64,28.36,28.36,0,0,1,9.93,11.06,29.3,29.3,0,0,1,3.67,12.51,23.61,23.61,0,0,1-2.34,11.65,27.43,27.43,0,0,1-7.84,9.53l-8.58-16a9.82,9.82,0,0,0,2.06-5.11,9.25,9.25,0,0,0-1.14-5.33,8.23,8.23,0,0,0-6.12-4.52q-4.07-.68-8.92,1.92c-3.24,1.74-5.41,3.86-6.54,6.37a8.21,8.21,0,0,0,.38,7.59,9.23,9.23,0,0,0,3.8,3.9,9.88,9.88,0,0,0,5.4,1.12l8.58,16a27.62,27.62,0,0,1-12.27,1.25,23.69,23.69,0,0,1-11-4.5,29.37,29.37,0,0,1-8.39-10,28.43,28.43,0,0,1-3.71-14.39,23.93,23.93,0,0,1,4.27-13A33.58,33.58,0,0,1,156,702.19Z"/><path d="M175,809.32l8.78-20.45,0-.06-15.29,12.44-10.88-13.36,42.63-34.68,16.16,19.86a25.31,25.31,0,0,1,5.36,10.35,16.42,16.42,0,0,1-.51,9.57,17.91,17.91,0,0,1-5.64,7.64,16.35,16.35,0,0,1-9.52,3.8,16.85,16.85,0,0,1-10.32-3L186.93,824Zm17.64-27.76,4.31,5.3a5.41,5.41,0,0,0,3.22,2.18,5.44,5.44,0,0,0,5.37-4.42,5.11,5.11,0,0,0-1.37-3.64l-4.31-5.3Z"/><path d="M205.65,838a27.34,27.34,0,0,1-.92-14.38A29.58,29.58,0,0,1,224.1,802a26.91,26.91,0,0,1,14.37-.62,29.81,29.81,0,0,1,21.18,19,26.82,26.82,0,0,1,.89,14.3,29.83,29.83,0,0,1-19.37,21.61,27.07,27.07,0,0,1-14.36.68,29.52,29.52,0,0,1-21.16-19Zm27,3.08q4.29-.59,8-4.75t3.9-8.54a9.79,9.79,0,0,0-3.7-7.74q-3.87-3.46-8.15-2.88T224.65,822q-3.74,4.17-3.85,8.48c-.09,2.89,1.17,5.48,3.75,7.8A9.76,9.76,0,0,0,232.64,841.07Z"/><path d="M294.78,879.73a13.36,13.36,0,0,1-2.2,8.5q-3.9,6.07-10,6.78t-13.64-4.12l-24.21-15.58,29.73-46.2L298,844.27q7,4.53,9.12,10.21T305.4,866a13,13,0,0,1-6.51,5.46,11.93,11.93,0,0,1-8,0A13.13,13.13,0,0,1,294.78,879.73Zm-18.15-1.35a3.47,3.47,0,0,0,2.52-1.84q2.14-3.33-1.71-5.8l-6.59-4.25-4.2,6.53,6.59,4.24A5.5,5.5,0,0,0,276.63,878.38Zm.69-21.94,5.61,3.62a5.32,5.32,0,0,0,3.41,1.08,3.48,3.48,0,0,0,2.5-1.8,3.73,3.73,0,0,0,.67-3.12,5.18,5.18,0,0,0-2.38-2.69l-5.61-3.61Z"/><path d="M307,908.55a27.42,27.42,0,0,1-5.39-13.36,29.64,29.64,0,0,1,11.62-26.61,26.94,26.94,0,0,1,13.44-5.09,29.82,29.82,0,0,1,26.07,11.38,26.79,26.79,0,0,1,5.33,13.29,29.81,29.81,0,0,1-11.61,26.6,27,27,0,0,1-13.42,5.15,29.48,29.48,0,0,1-26-11.36Zm26.6-5.54q3.87-1.9,6.11-7t1-9.33a9.8,9.8,0,0,0-5.94-6.19c-3.17-1.39-6.06-1.45-8.64-.18s-4.64,3.64-6.15,7.1-1.82,6.5-1,9.26,2.83,4.84,6,6.22A9.8,9.8,0,0,0,333.62,903Z"/><path d="M411.4,889.35l-3.47,13.21-14.11-3.71-10.49,39.94-16.67-4.38,10.49-39.93-14-3.67,3.47-13.21Z"/><path d="M431,891.72,422.63,946l-17-2.61L414,889.11Z"/><path d="M437.33,906.08a23.8,23.8,0,0,1,9.77-9.56,28.47,28.47,0,0,1,14.55-3,29.28,29.28,0,0,1,12.66,3.13,23.53,23.53,0,0,1,8.89,7.88,27.38,27.38,0,0,1,4.29,11.57l-18.15-.64a9.78,9.78,0,0,0-3.38-4.35,9.24,9.24,0,0,0-5.18-1.7,8.23,8.23,0,0,0-7,3q-2.64,3.18-2.83,8.68t2.21,8.85a8.21,8.21,0,0,0,6.75,3.5,9.32,9.32,0,0,0,5.29-1.32A9.89,9.89,0,0,0,468.9,928l18.15.64a27.44,27.44,0,0,1-5.1,11.24,23.65,23.65,0,0,1-9.42,7.24,29.32,29.32,0,0,1-12.85,2.22,28.43,28.43,0,0,1-14.3-4,23.89,23.89,0,0,1-9.08-10.23,33.57,33.57,0,0,1,1-29Z"/><path d="M502.61,944.16q-6.92-3.81-8.53-12.61l18.19-2.2q.94,4.65,4.73,4.2a4.14,4.14,0,0,0,2.27-.94,2.34,2.34,0,0,0,.71-2.16,3.56,3.56,0,0,0-2.46-2.87,41.28,41.28,0,0,0-6.8-2,71.43,71.43,0,0,1-9.11-2.57,17,17,0,0,1-6.52-4.45,14.24,14.24,0,0,1-3.44-8.42,15,15,0,0,1,1.64-9.38,17,17,0,0,1,6.79-6.57A28.43,28.43,0,0,1,510.52,891q10-1.21,16.47,2.7T534.76,906l-18.41,2.23a4.59,4.59,0,0,0-1.56-3.17,3.76,3.76,0,0,0-2.74-.69,2.33,2.33,0,0,0-1.68.95,2.9,2.9,0,0,0-.45,2.12,3.53,3.53,0,0,0,2.41,2.8,47.81,47.81,0,0,0,6.86,2.1,75,75,0,0,1,9,2.67,18.29,18.29,0,0,1,6.41,4.22,12.65,12.65,0,0,1,3.43,7.64,16.87,16.87,0,0,1-1.38,9.28,16.63,16.63,0,0,1-6.42,7.07,26,26,0,0,1-10.9,3.58Q509.52,948,502.61,944.16Z"/><path d="M568.5,932.92Q561,930.39,557.89,922l17.52-5.36q1.76,4.43,5.39,3.3a4.09,4.09,0,0,0,2.07-1.32,2.32,2.32,0,0,0,.33-2.25,3.58,3.58,0,0,0-2.93-2.39,41.81,41.81,0,0,0-7-.73,71.55,71.55,0,0,1-9.41-.93,16.92,16.92,0,0,1-7.2-3.24,14.19,14.19,0,0,1-4.87-7.68,15,15,0,0,1,0-9.52,17,17,0,0,1,5.53-7.66,28.14,28.14,0,0,1,9.71-5q9.64-3,16.68-.24t9.82,10.71l-17.74,5.43a4.58,4.58,0,0,0-2.09-2.85,3.76,3.76,0,0,0-2.82-.19,2.34,2.34,0,0,0-1.49,1.23,2.86,2.86,0,0,0-.06,2.17,3.53,3.53,0,0,0,2.86,2.33,47.91,47.91,0,0,0,7.12.86,73.76,73.76,0,0,1,9.29,1.05,18.15,18.15,0,0,1,7.06,3,12.6,12.6,0,0,1,4.71,6.92,16.28,16.28,0,0,1-4.8,17.45,26,26,0,0,1-10.1,5.45Q576,935.46,568.5,932.92Z"/><path d="M599.15,883.4a23.91,23.91,0,0,1,4.21-13A28.5,28.5,0,0,1,614.84,861a29.31,29.31,0,0,1,12.67-3.11A23.52,23.52,0,0,1,639,860.7a27.49,27.49,0,0,1,9.18,8.25l-16.37,7.86a9.86,9.86,0,0,0-5-2.28,9.26,9.26,0,0,0-5.37.91,8.17,8.17,0,0,0-4.78,5.91q-.87,4,1.52,9t6.08,6.81a8.2,8.2,0,0,0,7.6,0,9.22,9.22,0,0,0,4.06-3.63,9.89,9.89,0,0,0,1.36-5.34l16.36-7.87a27.34,27.34,0,0,1,.71,12.32,23.65,23.65,0,0,1-5,10.78,29.31,29.31,0,0,1-10.35,8,28.42,28.42,0,0,1-14.54,3.07,23.78,23.78,0,0,1-12.79-4.84,33.55,33.55,0,0,1-12.57-26.16Z"/><path d="M683.07,819.21l31.54,45-14.11,9.89-12.29-17.54L674.8,866l12.29,17.54L673,893.38l-31.53-45,14.11-9.89,11.35,16.21,13.41-9.4L669,829.09Z"/><path d="M731.76,844.68a27.21,27.21,0,0,1-14.41,0A29.53,29.53,0,0,1,697,824a26.86,26.86,0,0,1,.28-14.37,29.84,29.84,0,0,1,20.27-19.95,26.78,26.78,0,0,1,14.32,0,29.85,29.85,0,0,1,20.36,20.69,27,27,0,0,1-.22,14.38,29.49,29.49,0,0,1-20.25,19.92Zm4.77-26.74q-.31-4.31-4.24-8.29T724,805.22a9.77,9.77,0,0,0-8,3.2c-2.48,2.43-3.6,5.08-3.39,8s1.65,5.65,4.3,8.34,5.35,4.12,8.22,4.38,5.54-.83,8-3.26A9.76,9.76,0,0,0,736.53,817.94Z"/><path d="M776.69,796a27.25,27.25,0,0,1-14.19,2.46,29.64,29.64,0,0,1-23.57-16.95,27.08,27.08,0,0,1-2.15-14.22,29.8,29.8,0,0,1,16.6-23.09,26.85,26.85,0,0,1,14.12-2.42,29.89,29.89,0,0,1,23.57,16.95,27,27,0,0,1,2.21,14.21A29.47,29.47,0,0,1,776.69,796Zm.18-27.17q-1.05-4.18-5.58-7.45t-8.91-3a9.81,9.81,0,0,0-7.3,4.5q-3,4.23-2,8.42t5.65,7.5q4.53,3.26,8.84,2.92c2.88-.23,5.32-1.75,7.35-4.56A9.82,9.82,0,0,0,776.87,768.78Z"/><path d="M805.45,732.22l7.72-14.71,11.54,6.06-15.71,30L760.34,728l8-15.26Z"/><path d="M826.8,708.53q-6.57,4.37-15.12,1.73l6.45-17.15q4.57,1.3,5.91-2.25a4.13,4.13,0,0,0,.22-2.45,2.32,2.32,0,0,0-1.59-1.63,3.57,3.57,0,0,0-3.68.85,43.07,43.07,0,0,0-4.87,5.13,69.7,69.7,0,0,1-6.49,6.89,16.85,16.85,0,0,1-7,3.73,14.19,14.19,0,0,1-9-.84,15.06,15.06,0,0,1-7.57-5.79,17,17,0,0,1-2.68-9.06,28.19,28.19,0,0,1,2-10.74q3.55-9.45,10-13.36t14.48-1.23l-6.54,17.36a4.64,4.64,0,0,0-3.53-.08,3.73,3.73,0,0,0-1.88,2.11,2.35,2.35,0,0,0,.07,1.93,2.84,2.84,0,0,0,1.67,1.38,3.53,3.53,0,0,0,3.6-.84,47.27,47.27,0,0,0,5-5.12,73.62,73.62,0,0,1,6.51-6.71,18.25,18.25,0,0,1,6.71-3.74,12.63,12.63,0,0,1,8.36.5,16.83,16.83,0,0,1,7.59,5.5,16.65,16.65,0,0,1,3.3,9,26.08,26.08,0,0,1-1.86,11.33Q833.39,704.17,826.8,708.53Z"/></g></g></svg>